<?xml version="1.0" ?>
<svg style="enable-background:new 0 0 512 512;" version="1.1" viewBox="0 0 512 512" xml:space="preserve" xmlns="http://www.w3.org/2000/svg" xmlns:xlink="http://www.w3.org/1999/xlink">
	<style type="text/css">
		.st0{fill:#95A5A6;}
		.st1{fill:#7E8C8D;}
		.st2{fill:#FFFFFF;}
	</style>
	<g>
		<circle class="st0" cx="256" cy="256" r="250"/>
	</g>
		<path class="st1" d="M501.3,304.4c-0.2-0.3-0.4-0.6-0.7-0.9c-43.5-43.4-86.9-86.8-130.4-130.3c-1.4-1.4-2.9-2.8-4.5-4  c-13-10.1-27.3-12.7-42.8-6.5c-10.1,4.1-17.7,11.3-23.3,20.6c-0.9,1.4-1.8,1.9-3.4,1.9c-25.2-0.1-50.4-0.1-75.6,0  c-1.7,0-2.8-0.5-3.9-1.7c-3.6-3.7-7.3-7.4-11-11c-7.5-7.2-16.3-11.8-26.7-12.8c-11.4-1.1-21.6,2.3-30.6,9.4  c-8.6,6.8-14.3,15.6-18.1,25.7c-2.5,6.6-3.7,13.5-5.2,20.4c-5.1,21.9-10,43.9-15.1,65.8c-1.7,7.3-3.4,14.6-3.2,22  c-0.1,4.3,0.3,8.4,1,12.4c2,10.8,6.4,20.3,14.3,28.2c25.4,25.3,50.8,50.8,76.2,76.2c28,28,56,56,84,84c0.3,0.3,0.7,0.6,1,0.8  C392.4,492.7,480.5,410.6,501.3,304.4z"/><g><path class="st2" d="M404.4,286.3l-19.1-83.5c-3.7-16.1-12.8-29.7-25.1-37.3c-12.2-7.6-26.6-8.6-39.4-2.7   c-9.4,4.3-17.4,11.9-23,21.9c0,0,0,0-0.1,0h-83c-0.1,0-0.1,0-0.1,0c0,0,0,0,0,0c-5.7-10-13.7-17.6-23.1-21.9   c-12.8-5.9-27.2-4.9-39.4,2.7c-12.2,7.6-21.4,21.2-25.1,37.3l-19.1,83.5c-6.3,27.6,3.5,54.2,23.5,63.3c5,2.3,10.3,3.4,15.5,3.4   c17.1,0,34-11.5,41.2-30l9.2-23.5c5.7,9.3,14.7,15,24.5,15c13.3,0,25-10.6,29-25.8h10.7c4,15.2,15.7,25.8,29,25.8   c9.8,0,18.8-5.8,24.5-15l9.2,23.5c4.6,11.9,12.7,21.2,22.7,26.1c10,4.9,21.1,5.1,31.2,0.5c10.1-4.6,18.4-13.7,23.2-25.4   C406.2,312.5,407.3,299,404.4,286.3z M390.3,317.4c-3.5,8.4-9.4,14.8-16.6,18.1c-7.2,3.3-15.1,3.2-22.2-0.3   c-7.1-3.5-12.9-10.1-16.2-18.6l-12.8-32.7c-1.4-3.6-4.4-5.8-7.7-5.6c-3.3,0.2-6.1,2.8-7.2,6.5c-2.6,8.8-9.4,14.8-17.1,14.8   c-8.7,0-16.1-7.5-17.8-17.9c-0.7-4.6-4.1-8-7.9-8h-17.4c-3.8,0-7.2,3.4-7.9,8c-1.7,10.4-9.2,17.9-17.8,17.9   c-7.7,0-14.5-5.9-17.1-14.8c-1.1-3.8-3.9-6.3-7.2-6.5c-3.3-0.2-6.3,2-7.7,5.6L177,316.5c-6.7,17.1-25.9,26-41.3,19   c-14-6.4-20.5-25-15.9-45.2l19.1-83.5c2.8-12.3,9.5-22.2,18.8-27.9c5.3-3.3,10.9-4.9,16.6-4.9c4.3,0,8.7,1,12.9,2.9   c7,3.2,13,8.9,17.2,16.4c2.3,4.1,6.1,6.5,10.2,6.5h83c4.1,0,7.9-2.4,10.2-6.5c4.3-7.5,10.2-13.1,17.3-16.4c9.7-4.5,20.2-3.8,29.5,2   c9.3,5.8,15.9,15.7,18.8,27.9l19.1,83.5C394.6,299.4,393.8,309,390.3,317.4z"/><circle class="st2" cx="338.6" cy="215.7" r="7.8"/><circle class="st2" cx="338.6" cy="252.5" r="7.8"/><circle class="st2" cx="320.2" cy="234.1" r="7.8"/><circle class="st2" cx="357" cy="234.1" r="7.8"/><path class="st2" d="M192.2,227.9h-10.9V217c0-3.4-2.8-6.2-6.2-6.2c-3.4,0-6.2,2.8-6.2,6.2v10.9H158c-3.4,0-6.2,2.8-6.2,6.2   c0,3.4,2.8,6.2,6.2,6.2H169v10.9c0,3.4,2.8,6.2,6.2,6.2c3.4,0,6.2-2.8,6.2-6.2v-10.9h10.9c3.4,0,6.2-2.8,6.2-6.2   C198.4,230.7,195.6,227.9,192.2,227.9z"/>
	</g>
</svg>